<svg xmlns="http://www.w3.org/2000/svg" width="480" height="400" viewBox="0 0 480 400">
  <!-- 背景 -->
  <rect width="480" height="400" fill="#ffffff" />
  
  <!-- 主执行流程容器 -->
  <rect x="90" y="20" width="300" height="360" rx="8" ry="8" fill="#f9f9f9" stroke="#e0e6ed" stroke-width="1" />
  
  <!-- 主执行流程标题 -->
  <rect x="90" y="20" width="300" height="30" rx="8" ry="8" fill="#4a6fa5" />
  <text x="240" y="42" font-family="Arial, sans-serif" font-size="15" font-weight="bold" text-anchor="middle" fill="#ffffff">主执行流程</text>
  
  <!-- 步骤1 -->
  <rect x="110" y="60" width="260" height="35" rx="5" ry="5" fill="#f5f7fa" stroke="#e0e6ed" stroke-width="1" />
  <text x="125" y="83" font-family="Consolas, monospace" font-size="13" fill="#2c3e50">1. 调用 example()</text>
  
  <!-- 步骤2 -->
  <rect x="110" y="105" width="260" height="35" rx="5" ry="5" fill="#f5f7fa" stroke="#e0e6ed" stroke-width="1" />
  <text x="125" y="128" font-family="Consolas, monospace" font-size="13" fill="#2c3e50">2. 输出 "开始"</text>
  
  <!-- 步骤3 -->
  <rect x="110" y="150" width="260" height="35" rx="5" ry="5" fill="#f5f7fa" stroke="#e0e6ed" stroke-width="1" />
  <text x="125" y="173" font-family="Consolas, monospace" font-size="13" fill="#2c3e50">3. 创建Promise并设置定时器</text>
  
  <!-- 步骤4 -->
  <rect x="110" y="195" width="260" height="35" rx="5" ry="5" fill="#f5f7fa" stroke="#e0e6ed" stroke-width="1" />
  <text x="125" y="218" font-family="Consolas, monospace" font-size="13" fill="#2c3e50">4. await暂停函数执行</text>
  
  <!-- 步骤5 -->
  <rect x="110" y="240" width="260" height="35" rx="5" ry="5" fill="#f5f7fa" stroke="#e0e6ed" stroke-width="1" />
  <text x="125" y="263" font-family="Consolas, monospace" font-size="13" fill="#2c3e50">5. 1秒后Promise完成</text>
  
  <!-- 步骤6 -->
  <rect x="110" y="285" width="260" height="35" rx="5" ry="5" fill="#f5f7fa" stroke="#e0e6ed" stroke-width="1" />
  <text x="125" y="308" font-family="Consolas, monospace" font-size="13" fill="#2c3e50">6. 输出 "结束"</text>
  
  <!-- 步骤7 -->
  <rect x="110" y="330" width="260" height="35" rx="5" ry="5" fill="#f5f7fa" stroke="#e0e6ed" stroke-width="1" />
  <text x="125" y="353" font-family="Consolas, monospace" font-size="13" fill="#2c3e50">7. 输出 "Promise完成"</text>
</svg>